# xmcd CD database file
#
# Track frame offsets:
#	150
#	16580
#	43940
#	64535
#	81158
#	103200
#	113953
#	142063
#	161175
#	184268
#	205593
#	222875
#
# Disc length: 3179 seconds
#
# Revision: 0
# Processed by: cddbd v1.5.2PL0 Copyright (c) Steve Scherf et al.
# Submitted via: CDex 1.70beta2
#
DISCID=ab0c690c
DTITLE=Count Basie Big Band - Montreux '77
DYEAR=1977
DGENRE=Jazz
TTITLE0=The Heat's On
TTITLE1=Freckle Face
TTITLE2=Splanky
TTITLE3=The More I See You
TTITLE4=Night In Tunisia
TTITLE5=Hittin' 12
TTITLE6=Bag Of  Dreams
TTITLE7=Things Ain't What They Used To Be
TTITLE8=I Needs To Be Bee'd
TTITLE9=Li'l Darlin'
TTITLE10=Jumpin' At The Woodside
TTITLE11=One O'clock Jump
EXTD=YEAR: 1977
EXTT0=
EXTT1=
EXTT2=
EXTT3=
EXTT4=
EXTT5=
EXTT6=
EXTT7=
EXTT8=
EXTT9=
EXTT10=
EXTT11=
PLAYORDER=
